<svg width="490" height="490" viewBox="0 0 490 490" fill="none" xmlns="http://www.w3.org/2000/svg">
<g clip-path="url(#clip0)">
<path d="M244.8 489.6C379.8 489.6 489.6 379.8 489.6 244.8C489.6 109.8 379.8 0 244.8 0C109.8 0 0 109.8 0 244.8C0 379.8 109.8 489.6 244.8 489.6ZM244.8 19.8C368.9 19.8 469.8 120.7 469.8 244.8C469.8 368.9 368.9 469.8 244.8 469.8C120.7 469.8 19.8 368.9 19.8 244.8C19.8 120.7 120.7 19.8 244.8 19.8Z" fill="#B9AB60"/>
<path d="M184.04 357.005C186.664 359.623 190.255 361 193.708 361C197.161 361 200.752 359.623 203.376 357.005L305.995 254.659C308.619 252.042 310 248.599 310 245.017C310 241.436 308.619 237.992 305.995 235.375L203.376 133.029C197.989 127.657 189.426 127.657 184.04 133.029C178.653 138.401 178.653 146.942 184.04 152.314L276.991 245.017L184.04 337.721C178.792 343.093 178.792 351.771 184.04 357.005Z" fill="#B9AB60"/>
</g>
<defs>
<clipPath id="clip0">
<rect width="489.6" height="489.6" fill="white"/>
</clipPath>
</defs>
</svg>
