<svg width="512" height="512" viewBox="0 0 512 512" fill="none" xmlns="http://www.w3.org/2000/svg">
<path d="M505.743 475.584L360.145 329.984C388.348 295.147 405.329 250.88 405.329 202.667C405.329 90.923 314.407 0 202.664 0C90.921 0 0 90.922 0 202.666C0 314.41 90.922 405.333 202.665 405.333C250.877 405.333 295.144 388.352 329.98 360.149L475.579 505.749C479.739 509.909 485.2 512 490.662 512C496.124 512 501.584 509.909 505.744 505.749C514.085 497.408 514.085 483.925 505.743 475.584ZM202.665 362.666C114.431 362.666 42.6665 290.901 42.6665 202.666C42.6665 114.431 114.431 42.666 202.665 42.666C290.899 42.666 362.663 114.431 362.663 202.666C362.663 290.901 290.898 362.666 202.665 362.666Z" fill="#0A2980"/>
</svg>
