<svg width="456" height="456" viewBox="0 0 456 456" fill="none" xmlns="http://www.w3.org/2000/svg">
<path d="M385.731 0H70C31.3401 0 0 31.34 0 69.9999V385.731C0 424.391 31.34 455.731 69.9999 455.731H385.731C424.391 455.731 455.731 424.391 455.731 385.731V70C455.731 31.3401 424.391 0 385.731 0Z" fill="#B9AB60"/>
<path d="M405.453 219.39C406.279 215.037 406.688 211.375 406.876 208.502C407.186 203.76 406.832 196.721 406.706 194.517C402.339 118.561 323.535 58.046 226.961 58.046C127.584 58.046 47.025 122.123 47.025 201.167C47.025 273.82 115.084 333.827 203.258 343.057C208.648 343.621 212.535 348.488 211.938 353.874L208.184 387.664C207.331 395.335 215.263 400.915 222.213 397.56C296.709 361.608 341.254 324.622 367.855 292.578C372.696 286.747 388.48 264.633 391.698 258.824C398.529 246.494 403.238 233.253 405.453 219.39Z" fill="white"/>
<path d="M128.019 230.16V169.874C128.019 164.791 123.898 160.67 118.815 160.67C113.731 160.67 109.61 164.791 109.61 169.874V239.364C109.61 244.447 113.731 248.568 118.815 248.568H155.631C160.714 248.568 164.835 244.447 164.835 239.364C164.835 234.281 160.714 230.16 155.631 230.16H128.019Z" fill="#B9AB60"/>
<path d="M184.794 248.568H180.77C176.798 248.568 173.578 245.348 173.578 241.376V167.862C173.578 163.89 176.798 160.67 180.77 160.67H184.794C188.766 160.67 191.986 163.89 191.986 167.862V241.376C191.986 245.348 188.766 248.568 184.794 248.568Z" fill="#B9AB60"/>
<path d="M259.174 169.874V212.326C259.174 212.326 222.416 164.381 221.855 163.751C220.099 161.78 217.511 160.567 214.638 160.676C209.631 160.866 205.792 165.242 205.792 170.252V239.363C205.792 244.446 209.913 248.567 214.996 248.567C220.079 248.567 224.2 244.446 224.2 239.363V197.169C224.2 197.169 261.517 245.532 262.065 246.051C263.693 247.592 265.88 248.546 268.293 248.567C273.404 248.614 277.583 244.092 277.583 238.981V169.874C277.583 164.791 273.462 160.67 268.378 160.67C263.295 160.671 259.174 164.791 259.174 169.874Z" fill="#B9AB60"/>
<path d="M346.612 169.874C346.612 164.791 342.491 160.67 337.407 160.67H300.591C295.508 160.67 291.387 164.791 291.387 169.874V239.364C291.387 244.447 295.508 248.568 300.591 248.568H337.407C342.491 248.568 346.612 244.447 346.612 239.364C346.612 234.281 342.491 230.16 337.407 230.16H309.796V213.822H337.407C342.491 213.822 346.612 209.701 346.612 204.618C346.612 199.535 342.491 195.414 337.407 195.414H309.796V179.076H337.407C342.491 179.079 346.612 174.958 346.612 169.874Z" fill="#B9AB60"/>
</svg>
