<svg width="513" height="363" viewBox="0 0 513 363" fill="none" xmlns="http://www.w3.org/2000/svg">
<path d="M11.4657 306.585C21.919 343.662 53.8977 350.446 56.031 351.748C108.66 366.084 403.658 366.126 457.076 351.748C493.663 341.166 500.383 308.718 501.642 306.585C515.572 232.473 516.49 135.854 501.002 51.7583L501.642 55.9396C491.188 18.8623 459.21 12.0783 457.076 10.7769C405.151 -3.32441 109.386 -3.85774 56.031 10.7769C19.4444 21.3796 12.7244 53.8063 11.4657 55.9396C-3.44629 133.828 -4.19296 223.193 11.4657 306.585ZM205.3 259.161V103.577L338.975 181.486L205.3 259.161Z" fill="#B9AB60"/>
</svg>
